<?xml version="1.0" encoding="utf-8"?>
<!-- Generator: Adobe Illustrator 19.0.0, SVG Export Plug-In . SVG Version: 6.00 Build 0)  -->
<svg version="1.1" id="Layer_1" xmlns="http://www.w3.org/2000/svg" xmlns:xlink="http://www.w3.org/1999/xlink" x="0px" y="0px"
	 viewBox="-142 333 326 128" style="enable-background:new -142 333 326 128;" xml:space="preserve">
<style type="text/css">
	.st0{fill:#FFFFFF;}
</style>
<g>
	<path class="st0" d="M-73.1,397c-1.3-1.5-2.9-3-4.7-4.4c0.1,1.5,0.2,2.9,0.2,4.4s-0.1,3-0.2,4.4C-76,400-74.4,398.5-73.1,397z"/>
	<path class="st0" d="M-71.5,395.2c3.4-4.4,4.8-8.6,3.1-11.4c-1.6-2.9-5.9-3.8-11.5-3c0.8,2.6,1.4,5.5,1.8,8.6
		C-75.6,391.2-73.4,393.1-71.5,395.2z"/>
	<path class="st0" d="M-84.5,385c1.3,0.7,2.6,1.5,3.8,2.4c-0.4-2.3-0.9-4.4-1.5-6.3c-2,0.4-4,1-6.2,1.8
		C-87.1,383.6-85.8,384.3-84.5,385z"/>
	<path class="st0" d="M-98.3,408.9c-1.3-0.8-2.6-1.5-3.8-2.4c0.4,2.3,0.9,4.4,1.5,6.3c2-0.4,4-1,6.2-1.8
		C-95.7,410.3-97,409.7-98.3,408.9z"/>
	<path class="st0" d="M-88.4,411c2.1,0.8,4.2,1.4,6.2,1.8c0.6-1.9,1.1-4,1.5-6.3c-1.2,0.8-2.5,1.6-3.8,2.4
		C-85.8,409.7-87.1,410.3-88.4,411z"/>
	<path class="st0" d="M-99.7,415.1c2.1,5.2,5.1,8.4,8.4,8.4s6.3-3.2,8.4-8.4c-2.7-0.6-5.5-1.5-8.4-2.7
		C-94.2,413.5-97.1,414.5-99.7,415.1z"/>
	<path class="st0" d="M-68.4,410.2c1.6-2.9,0.3-7-3.1-11.4c-1.9,2-4.1,4-6.5,5.9c-0.4,3.1-1,6-1.8,8.6
		C-74.4,414-70.1,413.1-68.4,410.2z"/>
	<path class="st0" d="M-109.7,397c1.3,1.5,2.9,3,4.7,4.4c-0.1-1.5-0.2-2.9-0.2-4.4s0.1-3,0.2-4.4C-106.8,394-108.3,395.5-109.7,397z
		"/>
	<path class="st0" d="M-83,378.9c-2.1-5.2-5.1-8.4-8.4-8.4s-6.3,3.2-8.4,8.4c2.7,0.6,5.5,1.5,8.4,2.7
		C-88.5,380.4-85.7,379.5-83,378.9z"/>
	<path class="st0" d="M-114.3,410.2c1.6,2.9,5.9,3.8,11.5,3c-0.8-2.6-1.4-5.5-1.8-8.6c-2.5-1.9-4.7-3.8-6.5-5.9
		C-114.7,403.2-116,407.4-114.3,410.2z"/>
	<path class="st0" d="M-104.7,389.3c0.4-3.1,1-6,1.8-8.6c-5.5-0.8-9.8,0.2-11.5,3c-1.6,2.9-0.3,7,3.1,11.4
		C-109.4,393.1-107.2,391.2-104.7,389.3z"/>
	<path class="st0" d="M-94.4,383c-2.1-0.8-4.2-1.4-6.2-1.8c-0.6,1.9-1.1,4-1.5,6.3c1.2-0.8,2.5-1.6,3.8-2.4S-95.7,383.6-94.4,383z"
		/>
	<path class="st0" d="M-97.1,406.9c1.9,1.1,3.8,2.1,5.7,2.9c1.9-0.8,3.8-1.8,5.7-2.9s3.7-2.3,5.4-3.5c0.2-2,0.3-4.2,0.3-6.4
		s-0.1-4.4-0.3-6.4c-1.7-1.2-3.5-2.4-5.4-3.5s-3.8-2.1-5.7-2.9c-1.9,0.8-3.8,1.8-5.7,2.9s-3.7,2.3-5.4,3.5c-0.2,2-0.3,4.2-0.3,6.4
		c0,2.2,0.1,4.4,0.3,6.4C-100.8,404.6-99,405.8-97.1,406.9z M-91.4,392.2c2.7,0,4.8,2.2,4.8,4.8s-2.2,4.8-4.8,4.8
		c-2.7,0-4.8-2.2-4.8-4.8S-94.1,392.2-91.4,392.2z"/>
</g>
<g>
	<path class="st0" d="M-56.2,404.6c0.7,0.5,2,0.9,3.1,0.9c2.2,0,3.5-1.5,3.5-3.6c0-2-1.1-3.2-2.8-4.4c-1.7-1.2-4-3.2-4-5.9
		c0-3.2,2.2-5.6,5.6-5.6c1.3,0,2.5,0.4,3,0.8l-0.6,2.1c-0.5-0.4-1.4-0.7-2.5-0.7c-2.1,0-3.1,1.6-3.1,3c0,2.1,1.1,2.9,3.1,4.4
		c2.6,1.8,3.7,3.7,3.7,6.1c0,3.7-2.6,6-6,6c-1.5,0-3-0.5-3.6-0.9L-56.2,404.6z"/>
	<path class="st0" d="M-30.1,407c-0.7,0.3-1.7,0.6-3,0.6c-4.2,0-7.1-3.3-7.1-10.6c0-8.4,4.2-11.1,7.5-11.1c1.3,0,2.2,0.3,2.6,0.5
		l-0.5,2c-0.5-0.2-1-0.4-2.1-0.4c-2.3,0-4.9,2.2-4.9,8.7s2.4,8.6,5,8.6c0.9,0,1.7-0.2,2.2-0.5L-30.1,407z"/>
	<path class="st0" d="M-20.3,386.1v21.2h-2.4v-21.2H-20.3z"/>
	<path class="st0" d="M-3.7,397.3H-9v8h6v2.1h-8.5v-21.2h8.1v2.1h-5.7v7h5.3L-3.7,397.3L-3.7,397.3z"/>
	<path class="st0" d="M4.6,407.4v-21.2h2.3l3.9,10c0.9,2.3,2,5.1,2.7,7.4h0.1c-0.2-3.3-0.3-6.1-0.3-9.8v-7.6h2.2v21.2h-2.3l-4-10.2
		c-0.9-2.1-1.8-4.6-2.5-7.2H6.6c0.2,2.8,0.3,5.5,0.3,10.1v7.3L4.6,407.4L4.6,407.4z"/>
	<path class="st0" d="M33.5,407c-0.7,0.3-1.7,0.6-3,0.6c-4.2,0-7.1-3.3-7.1-10.6c0-8.4,4.2-11.1,7.5-11.1c1.3,0,2.2,0.3,2.6,0.5
		l-0.5,2c-0.5-0.2-1-0.4-2.1-0.4c-2.3,0-4.9,2.2-4.9,8.7s2.4,8.6,5,8.6c0.9,0,1.7-0.2,2.2-0.5L33.5,407z"/>
	<path class="st0" d="M48.7,397.3h-5.3v8h6v2.1h-8.5v-21.2H49v2.1h-5.7v7h5.3L48.7,397.3L48.7,397.3z"/>
	<path class="st0" d="M63,398.2v1.9h-6.9v-1.9H63z"/>
	<path class="st0" d="M80,407c-0.7,0.3-1.7,0.6-3,0.6c-4.2,0-7.1-3.3-7.1-10.6c0-8.4,4.2-11.1,7.5-11.1c1.3,0,2.2,0.3,2.6,0.5
		l-0.5,2c-0.5-0.2-1-0.4-2.1-0.4c-2.3,0-4.9,2.2-4.9,8.7s2.4,8.6,5,8.6c0.9,0,1.7-0.2,2.2-0.5L80,407z"/>
	<path class="st0" d="M98.6,396.6c0,8-2.7,11-6.1,11c-3.5,0-5.9-3.7-5.9-10.9c0-7,2.5-10.8,6.2-10.8
		C96.4,385.9,98.6,389.8,98.6,396.6z M89.1,396.7c0,4.4,0.9,8.7,3.5,8.7c2.7,0,3.5-4.6,3.5-8.8c0-4-0.7-8.7-3.5-8.7
		C89.9,388,89.1,392.4,89.1,396.7z"/>
	<path class="st0" d="M119.3,398.2c-0.2-2.8-0.3-5.9-0.2-8.3H119c-0.5,2.4-1,4.9-1.7,7.4l-2.6,10h-1.5l-2.5-9.5
		c-0.7-2.7-1.3-5.3-1.7-7.8h-0.1c0,2.5-0.1,5.5-0.3,8.5l-0.4,9H106l1.3-21.2h2.6l2.5,9.7c0.7,2.8,1.3,4.9,1.7,7.3h0.1
		c0.4-2.4,0.9-4.4,1.6-7.3l2.4-9.7h2.7l1.2,21.2h-2.3L119.3,398.2z"/>
	<path class="st0" d="M132.7,386.1v21.2h-2.4v-21.2H132.7z"/>
	<path class="st0" d="M150.7,407c-0.7,0.3-1.7,0.6-3,0.6c-4.2,0-7.1-3.3-7.1-10.6c0-8.4,4.2-11.1,7.5-11.1c1.3,0,2.2,0.3,2.6,0.5
		l-0.5,2c-0.5-0.2-1-0.4-2.1-0.4c-2.3,0-4.9,2.2-4.9,8.7s2.4,8.6,5,8.6c0.9,0,1.7-0.2,2.2-0.5L150.7,407z"/>
	<path class="st0" d="M157.7,404.6c0.7,0.5,2,0.9,3.1,0.9c2.2,0,3.5-1.5,3.5-3.6c0-2-1.1-3.2-2.8-4.4c-1.7-1.2-4-3.2-4-5.9
		c0-3.2,2.2-5.6,5.6-5.6c1.3,0,2.5,0.4,3,0.8l-0.6,2.1c-0.5-0.4-1.4-0.7-2.5-0.7c-2.1,0-3.1,1.6-3.1,3c0,2.1,1.1,2.9,3.1,4.4
		c2.6,1.8,3.7,3.7,3.7,6.1c0,3.7-2.6,6-6,6c-1.5,0-3-0.5-3.6-0.9L157.7,404.6z"/>
</g>
</svg>
